<?xml version="1.0" standalone="no"?>
<!DOCTYPE svg PUBLIC "-//W3C//DTD SVG 20010904//EN"
 "http://www.w3.org/TR/2001/REC-SVG-20010904/DTD/svg10.dtd">
<svg version="1.0" xmlns="http://www.w3.org/2000/svg"
 width="512.000000pt" height="512.000000pt" viewBox="0 0 512.000000 512.000000"
 preserveAspectRatio="xMidYMid meet">
<metadata>
Created by potrace 1.14, written by Peter Selinger 2001-2017
</metadata>
<g transform="translate(0.000000,512.000000) scale(0.100000,-0.100000)"
fill="#000000" stroke="none">
<path d="M2379 5116 c-2 -2 -38 -6 -79 -10 -64 -6 -213 -30 -315 -51 -58 -12
-202 -55 -291 -86 -399 -141 -790 -409 -1064 -730 -104 -121 -106 -124 -183
-236 -198 -291 -331 -606 -396 -938 -40 -200 -46 -267 -45 -515 0 -183 3 -241
19 -345 3 -16 7 -43 9 -60 31 -220 148 -573 253 -763 14 -26 37 -67 50 -92
115 -211 323 -465 534 -651 354 -314 825 -537 1275 -604 22 -4 50 -8 64 -11
109 -19 469 -26 600 -12 126 15 270 37 281 43 3 3 24 7 45 11 55 8 242 66 349
107 637 245 1160 752 1432 1387 81 190 153 450 178 640 15 121 19 195 20 355
0 193 -3 251 -16 330 -4 28 -10 66 -13 85 -2 19 -10 60 -16 90 -6 30 -14 66
-16 80 -18 88 -89 307 -139 425 -308 728 -973 1293 -1741 1480 -112 28 -123
30 -186 39 -21 3 -53 8 -70 11 -18 3 -51 7 -73 11 -46 6 -460 16 -466 10z
m436 -319 c11 -2 43 -8 70 -11 702 -99 1346 -558 1670 -1190 129 -253 200
-484 240 -781 13 -95 12 -399 -1 -512 -89 -752 -548 -1411 -1220 -1751 -200
-101 -430 -176 -644 -208 -19 -3 -46 -7 -60 -9 -185 -32 -504 -22 -720 21
-289 58 -571 172 -800 323 -88 58 -151 102 -160 111 -3 3 -34 29 -70 59 -258
214 -484 522 -618 841 -68 162 -132 384 -148 515 -3 22 -7 46 -9 53 -24 71
-24 464 -1 612 2 14 7 48 11 75 9 62 57 252 85 337 69 204 165 392 307 598 79
115 259 309 383 412 138 116 326 235 497 314 89 42 323 126 383 138 127 26
235 45 285 51 33 3 61 8 63 10 5 5 435 -2 457 -8z"/>
<path d="M3033 3949 c-46 -13 -99 -68 -112 -114 -6 -22 -11 -81 -11 -132 l0
-92 -497 -4 c-417 -3 -509 -7 -566 -21 -333 -80 -573 -312 -658 -638 -30 -111
-32 -250 -5 -299 26 -50 77 -81 133 -84 109 -6 178 54 188 163 13 137 24 174
76 273 39 72 135 165 210 201 114 57 144 60 619 60 239 0 451 -1 470 -1 l35
-1 -2 -102 c-2 -141 20 -192 102 -229 52 -24 96 -24 143 0 37 19 368 341 418
407 37 48 42 119 14 174 -29 57 -387 416 -435 436 -38 16 -75 17 -122 3z"/>
<path d="M3735 2553 c-32 -8 -84 -51 -100 -84 -9 -16 -20 -69 -26 -117 -12
-103 -22 -138 -60 -214 -71 -143 -207 -242 -369 -269 -51 -9 -957 -15 -965 -7
-2 2 -5 48 -6 103 -2 140 -25 190 -104 226 -50 23 -97 24 -141 3 -44 -21 -411
-388 -435 -436 -24 -46 -24 -99 -2 -146 23 -49 394 -419 438 -438 42 -17 66
-18 116 -2 51 15 98 58 114 104 7 20 13 80 14 133 1 52 3 96 4 97 1 1 223 4
492 7 270 3 501 7 515 10 248 51 410 147 552 326 117 147 179 315 182 492 1
97 -1 108 -24 141 -13 20 -37 44 -52 53 -30 17 -108 27 -143 18z"/>
</g>
</svg>
